<svg xmlns="http://www.w3.org/2000/svg" viewBox="0 0 64 64" fill="none">
  <ellipse cx="32" cy="38" rx="18" ry="14" fill="#855CD6" opacity="0.15"/>
  <ellipse cx="32" cy="36" rx="16" ry="12" fill="#855CD6" opacity="0.3"/>
  <path d="M32 14c-2 0-3.5 1-4 2.5-.5-1.5-2-2.5-4-2.5-2.5 0-4 1.5-4 3.5 0 3 4 5.5 8 9 4-3.5 8-6 8-9 0-2-1.5-3.5-4-3.5z" fill="#855CD6"/>
  <ellipse cx="32" cy="36" rx="14" ry="10" fill="#855CD6"/>
  <line x1="32" y1="26" x2="32" y2="46" stroke="#6B3FA0" stroke-width="1.5"/>
  <path d="M18 36c6-2 10-2 14-2s8 0 14 2" stroke="#6B3FA0" stroke-width="1" opacity="0.6"/>
  <path d="M19 32c5-1.5 9-2 13-2s8 .5 13 2" stroke="#6B3FA0" stroke-width="1" opacity="0.6"/>
  <path d="M19 40c5 1.5 9 2 13 2s8-.5 13-2" stroke="#6B3FA0" stroke-width="1" opacity="0.6"/>
  <ellipse cx="32" cy="30" rx="8" ry="5" fill="#9B6FE8" opacity="0.5"/>
  <circle cx="28" cy="16" r="1.5" fill="#C4A8FF"/>
  <circle cx="36" cy="16" r="1.5" fill="#C4A8FF"/>
  <path d="M14 30c-3-2-5-1-6 1-1 2 0 4 2 5" stroke="#855CD6" stroke-width="2" stroke-linecap="round" fill="none"/>
  <path d="M50 30c3-2 5-1 6 1 1 2 0 4-2 5" stroke="#855CD6" stroke-width="2" stroke-linecap="round" fill="none"/>
  <path d="M16 42c-4 2-6 5-5 7" stroke="#855CD6" stroke-width="2" stroke-linecap="round" fill="none"/>
  <path d="M48 42c4 2 6 5 5 7" stroke="#855CD6" stroke-width="2" stroke-linecap="round" fill="none"/>
  <path d="M24 48c-2 3-3 6-2 8" stroke="#855CD6" stroke-width="1.5" stroke-linecap="round" fill="none"/>
  <path d="M40 48c2 3 3 6 2 8" stroke="#855CD6" stroke-width="1.5" stroke-linecap="round" fill="none"/>
  <ellipse cx="32" cy="33" rx="4" ry="2.5" fill="#B08AEE" opacity="0.4"/>
</svg>
