<svg xmlns="http://www.w3.org/2000/svg" viewBox="0 0 32 32">
  <rect width="32" height="32" rx="6" fill="#0a0a0a"/>
  <g transform="translate(16,17) scale(0.6)">
    <ellipse cx="0" cy="0" rx="18" ry="12" fill="#855CD6" opacity="0.2"/>
    <ellipse cx="0" cy="0" rx="16" ry="10" fill="#855CD6" opacity="0.4"/>
    <path d="M0-18c-2 0-3.5 1-4 2.5-.5-1.5-2-2.5-4-2.5-2.5 0-4 1.5-4 3.5 0 3 4 5.5 8 9 4-3.5 8-6 8-9 0-2-1.5-3.5-4-3.5z" fill="#D4A0FF"/>
    <ellipse cx="0" cy="0" rx="14" ry="10" fill="#D4A0FF"/>
    <line x1="0" y1="-10" x2="0" y2="10" stroke="#855CD6" stroke-width="1.5"/>
    <path d="M-14 0c6-2 10-2 14-2s8 0 14 2" stroke="#855CD6" stroke-width="1" opacity="0.5"/>
    <path d="M-13-4c5-1.5 9-2 13-2s8 .5 13 2" stroke="#855CD6" stroke-width="1" opacity="0.5"/>
    <path d="M-13 4c5 1.5 9 2 13 2s8-.5 13-2" stroke="#855CD6" stroke-width="1" opacity="0.5"/>
    <path d="M-16-6c-3-2-5-1-6 1s0 4 2 5" stroke="#D4A0FF" stroke-width="2" stroke-linecap="round" fill="none"/>
    <path d="M16-6c3-2 5-1 6 1s0 4-2 5" stroke="#D4A0FF" stroke-width="2" stroke-linecap="round" fill="none"/>
  </g>
</svg>
