<svg xmlns="http://www.w3.org/2000/svg" viewBox="0 0 900 600">
  <rect width="900" height="200" fill="#CE1126"/>
  <rect y="200" width="900" height="200" fill="#FFFFFF"/>
  <rect y="400" width="900" height="200" fill="#000000"/>
  <g transform="translate(450,300)">
    <g fill="#C09300" stroke="#000" stroke-width="1">
      <ellipse cx="0" cy="0" rx="30" ry="20"/>
      <path d="M-8,-20 Q0,-35 8,-20" fill="#C09300"/>
      <ellipse cx="0" cy="-5" rx="8" ry="5" fill="#000" opacity="0.3"/>
      <path d="M-25,5 L-60,-20 Q-65,-15 -55,-5 L-25,15Z" fill="#C09300"/>
      <path d="M25,5 L60,-20 Q65,-15 55,-5 L25,15Z" fill="#C09300"/>
      <path d="M-10,15 L-15,50 Q-10,55 -5,50 L0,15Z" fill="#C09300"/>
      <path d="M10,15 L15,50 Q10,55 5,50 L0,15Z" fill="#C09300"/>
      <circle cx="-20" cy="-25" r="4" fill="#C09300"/>
      <circle cx="20" cy="-25" r="4" fill="#C09300"/>
    </g>
  </g>
</svg>
